# Blender v2.78 (sub 0) OBJ File: '13.blend'
# www.blender.org
mtllib Bookcase_01.mtl
g Bookcase_01_Cube.027
v 8.628584 0.595113 3.991288
v 8.628584 0.595113 5.151813
v 9.914598 0.595113 3.991288
v 9.914598 0.595113 5.151813
v 8.790959 -0.023331 4.137820
v 8.790959 -0.023331 5.005281
v 9.752222 -0.023331 4.137820
v 9.752222 -0.023331 5.005281
v -8.628584 0.595113 3.991288
v -8.628584 0.595113 5.151813
v -9.914598 0.595113 3.991288
v -9.914598 0.595113 5.151813
v -8.790959 -0.023331 4.137820
v -8.790959 -0.023331 5.005281
v -9.752222 -0.023331 4.137820
v -9.752222 -0.023331 5.005281
v 8.628584 0.595113 -3.991288
v 8.628584 0.595113 -5.151813
v 9.914598 0.595113 -3.991288
v 9.914598 0.595113 -5.151813
v 8.790959 -0.023331 -4.137820
v 8.790959 -0.023331 -5.005281
v 9.752222 -0.023331 -4.137820
v 9.752222 -0.023331 -5.005281
v -8.628584 0.595113 -3.991288
v -8.628584 0.595113 -5.151813
v -9.914598 0.595113 -3.991288
v -9.914598 0.595113 -5.151813
v -8.790959 -0.023331 -4.137820
v -8.790959 -0.023331 -5.005281
v -9.752222 -0.023331 -4.137820
v -9.752222 -0.023331 -5.005281
v -10.082049 2.000000 5.000000
v -10.082049 44.565353 5.000000
v -10.082049 2.000000 -5.000000
v -10.082049 44.565353 -5.000000
v 10.082049 2.000000 5.000000
v 10.082049 44.565353 5.000000
v 10.082049 2.000000 -5.000000
v 10.082049 44.565353 -5.000000
v -10.082049 10.513071 5.000000
v -10.082049 19.026142 5.000000
v -10.082049 27.539211 5.000000
v -10.082049 36.052284 5.000000
v -10.082049 36.052284 -5.000000
v -10.082049 27.539211 -5.000000
v -10.082049 19.026140 -5.000000
v -10.082049 10.513070 -5.000000
v 10.082049 36.052284 -5.000000
v 10.082049 27.539211 -5.000000
v 10.082049 19.026140 -5.000000
v 10.082049 10.513070 -5.000000
v 10.082049 36.052284 5.000000
v 10.082049 27.539211 5.000000
v 10.082049 19.026140 5.000000
v 10.082049 10.513070 5.000000
v 9.353550 36.780785 5.000000
v 9.353550 43.836853 5.000000
v -9.353550 43.836853 5.000000
v -9.353550 36.780785 5.000000
v 9.353550 2.728500 5.000000
v 9.353550 9.784571 5.000000
v -9.353550 9.784571 5.000000
v -9.353550 2.728500 5.000000
v 9.353550 11.241570 5.000000
v 9.353550 18.297642 5.000000
v -9.353550 18.297642 5.000000
v -9.353550 11.241570 5.000000
v 9.353550 19.754641 5.000000
v 9.353550 26.810713 5.000000
v -9.353550 26.810713 5.000000
v -9.353550 19.754642 5.000000
v 9.353550 28.267712 5.000000
v 9.353550 35.323784 5.000000
v -9.353550 35.323784 5.000000
v -9.353550 28.267712 5.000000
v 9.353550 43.836853 -4.020262
v 9.353550 36.780785 -4.020262
v -9.353550 36.780785 -4.020262
v -9.353550 43.836853 -4.020262
v 9.353550 9.784571 -4.020262
v 9.353550 2.728500 -4.020262
v -9.353550 2.728500 -4.020262
v -9.353550 9.784571 -4.020262
v 9.353550 18.297642 -4.020262
v 9.353550 11.241570 -4.020262
v -9.353550 11.241570 -4.020262
v -9.353550 18.297642 -4.020262
v 9.353550 26.810713 -4.020262
v 9.353550 19.754641 -4.020262
v -9.353550 19.754642 -4.020262
v -9.353550 26.810713 -4.020262
v 9.353550 35.323784 -4.020262
v 9.353550 28.267712 -4.020262
v -9.353550 28.267712 -4.020262
v -9.353550 35.323784 -4.020262
v 10.078793 36.874973 5.001662
v 10.078793 35.238731 5.001662
v -10.078793 35.238731 5.001662
v -10.078793 36.874973 5.001662
v 10.078793 36.874973 5.868110
v 10.078793 35.238731 5.868110
v -10.078793 35.238731 5.868110
v -10.078793 36.874973 5.868110
v 9.982032 36.707188 5.868110
v 9.982032 35.406517 5.868110
v -9.982032 35.406517 5.868110
v -9.982032 36.707188 5.868110
v 9.858084 36.609589 6.039793
v 9.858084 35.504112 6.039793
v -9.858084 35.504112 6.039793
v -9.858084 36.609589 6.039793
v 10.078793 28.460518 5.001662
v 10.078793 26.824276 5.001662
v -10.078793 26.824276 5.001662
v -10.078793 28.460518 5.001662
v 10.078793 28.460518 5.868110
v 10.078793 26.824276 5.868110
v -10.078793 26.824276 5.868110
v -10.078793 28.460518 5.868110
v 9.982032 28.292734 5.868110
v 9.982032 26.992062 5.868110
v -9.982032 26.992062 5.868110
v -9.982032 28.292734 5.868110
v 9.858084 28.195135 6.039793
v 9.858084 27.089661 6.039793
v -9.858084 27.089661 6.039793
v -9.858084 28.195135 6.039793
v 10.078793 19.765581 5.001662
v 10.078793 18.129339 5.001662
v -10.078793 18.129339 5.001662
v -10.078793 19.765581 5.001662
v 10.078793 19.765581 5.868110
v 10.078793 18.129339 5.868110
v -10.078793 18.129339 5.868110
v -10.078793 19.765581 5.868110
v 9.982032 19.597797 5.868110
v 9.982032 18.297123 5.868110
v -9.982032 18.297123 5.868110
v -9.982032 19.597797 5.868110
v 9.858084 19.500198 6.039793
v 9.858084 18.394722 6.039793
v -9.858084 18.394722 6.039793
v -9.858084 19.500198 6.039793
v 10.078793 11.351126 5.001662
v 10.078793 9.714882 5.001662
v -10.078793 9.714882 5.001662
v -10.078793 11.351126 5.001662
v 10.078793 11.351126 5.868110
v 10.078793 9.714882 5.868110
v -10.078793 9.714882 5.868110
v -10.078793 11.351126 5.868110
v 9.982032 11.183341 5.868110
v 9.982032 9.882668 5.868110
v -9.982032 9.882668 5.868110
v -9.982032 11.183341 5.868110
v 9.858084 11.085742 6.039793
v 9.858084 9.980267 6.039793
v -9.858084 9.980267 6.039793
v -9.858084 11.085742 6.039793
v -10.273104 47.280666 5.036952
v -10.273104 47.280666 -5.152546
v 10.273104 47.280666 -5.152546
v 10.273104 47.280666 5.036952
v 10.082049 44.565353 5.960104
v -10.082049 44.565353 5.960104
v 10.273104 47.280666 6.015250
v -10.273104 47.280666 6.015250
v -10.273104 45.126663 5.036952
v -10.273104 45.126663 -5.152546
v 10.273104 45.126663 5.036952
v 10.273104 45.126663 -5.152546
v -10.273104 45.126663 6.015250
v 10.273104 45.126663 6.015250
v 10.273104 47.280666 6.300352
v -10.273104 47.280666 6.300352
v -10.273104 45.126663 6.300352
v 10.273104 45.126663 6.300352
v -10.315541 1.563122 -5.471935
v -10.315541 1.563122 5.471935
v 10.315541 1.563122 -5.471935
v 10.315541 1.563122 5.471935
v -10.315541 0.350740 -5.471935
v -10.315541 0.350740 5.471935
v 10.315541 0.350740 -5.471935
v 10.315541 0.350740 5.471935
vn 0.0000 1.0000 0.0000
vn 0.0000 -1.0000 0.0000
vn 0.9672 -0.2539 0.0000
vn -0.9672 -0.2539 0.0000
vn 0.0000 -0.2306 0.9731
vn 0.0000 -0.2306 -0.9731
vn -1.0000 0.0000 0.0000
vn 0.0000 0.0000 -1.0000
vn 1.0000 0.0000 0.0000
vn 0.0000 0.7338 -0.6793
vn 0.0000 0.0000 1.0000
vn 0.8108 0.0000 0.5853
vn -0.8108 0.0000 0.5853
vn 0.0000 -0.8694 0.4942
vn 0.0000 0.8693 0.4942
vn 0.0000 -0.8693 0.4942
vn -0.9467 -0.3222 0.0000
vn 0.9467 -0.3222 0.0000
vn 0.0000 -0.0978 0.9952
vn 0.0000 -0.2623 -0.9650
vn -0.8819 0.4714 0.0000
vn 0.8819 0.4714 0.0000
vn 0.0000 0.7338 0.6793
usemtl 795548
s off
f 1//1 2//1 4//1 3//1
f 5//2 7//2 8//2 6//2
f 3//3 4//3 8//3 7//3
f 2//4 1//4 5//4 6//4
f 4//5 2//5 6//5 8//5
f 1//6 3//6 7//6 5//6
f 9//1 11//1 12//1 10//1
f 13//2 14//2 16//2 15//2
f 11//4 15//4 16//4 12//4
f 10//3 14//3 13//3 9//3
f 12//5 16//5 14//5 10//5
f 9//6 13//6 15//6 11//6
f 17//1 19//1 20//1 18//1
f 21//2 22//2 24//2 23//2
f 19//3 23//3 24//3 20//3
f 18//4 22//4 21//4 17//4
f 20//6 24//6 22//6 18//6
f 17//5 21//5 23//5 19//5
f 25//1 26//1 28//1 27//1
f 29//2 31//2 32//2 30//2
f 27//4 28//4 32//4 31//4
f 26//3 25//3 29//3 30//3
f 28//6 26//6 30//6 32//6
f 25//5 27//5 31//5 29//5
f 44//7 34//7 36//7 45//7
f 45//8 36//8 40//8 49//8
f 49//9 40//9 38//9 53//9
f 65//7 66//7 85//7 86//7
f 35//10 39//10 181//10 179//10
f 170//7 169//7 161//7 162//7
f 60//1 57//1 78//1 79//1
f 61//7 62//7 81//7 82//7
f 57//7 58//7 77//7 78//7
f 75//9 76//9 95//9 96//9
f 39//9 52//9 56//9 37//9
f 52//9 51//9 55//9 56//9
f 51//9 50//9 54//9 55//9
f 50//9 49//9 53//9 54//9
f 35//8 48//8 52//8 39//8
f 48//8 47//8 51//8 52//8
f 47//8 46//8 50//8 51//8
f 46//8 45//8 49//8 50//8
f 33//7 41//7 48//7 35//7
f 41//7 42//7 47//7 48//7
f 42//7 43//7 46//7 47//7
f 43//7 44//7 45//7 46//7
f 53//11 38//11 58//11 57//11
f 38//11 34//11 59//11 58//11
f 34//11 44//11 60//11 59//11
f 44//11 53//11 57//11 60//11
f 37//11 56//11 62//11 61//11
f 56//11 41//11 63//11 62//11
f 41//11 33//11 64//11 63//11
f 33//11 37//11 61//11 64//11
f 56//11 55//11 66//11 65//11
f 55//11 42//11 67//11 66//11
f 42//11 41//11 68//11 67//11
f 41//11 56//11 65//11 68//11
f 55//11 54//11 70//11 69//11
f 54//11 43//11 71//11 70//11
f 43//11 42//11 72//11 71//11
f 42//11 55//11 69//11 72//11
f 54//11 53//11 74//11 73//11
f 53//11 44//11 75//11 74//11
f 44//11 43//11 76//11 75//11
f 43//11 54//11 73//11 76//11
f 78//11 77//11 80//11 79//11
f 82//11 81//11 84//11 83//11
f 86//11 85//11 88//11 87//11
f 90//11 89//11 92//11 91//11
f 94//11 93//11 96//11 95//11
f 64//1 61//1 82//1 83//1
f 69//7 70//7 89//7 90//7
f 58//2 59//2 80//2 77//2
f 68//1 65//1 86//1 87//1
f 73//7 74//7 93//7 94//7
f 62//2 63//2 84//2 81//2
f 72//1 69//1 90//1 91//1
f 59//9 60//9 79//9 80//9
f 66//2 67//2 88//2 85//2
f 76//1 73//1 94//1 95//1
f 63//9 64//9 83//9 84//9
f 70//2 71//2 92//2 89//2
f 67//9 68//9 87//9 88//9
f 74//2 75//2 96//2 93//2
f 71//9 72//9 91//9 92//9
f 101//11 104//11 108//11 105//11
f 99//2 98//2 102//2 103//2
f 97//1 100//1 104//1 101//1
f 98//9 97//9 101//9 102//9
f 100//7 99//7 103//7 104//7
f 106//12 105//12 109//12 110//12
f 102//11 101//11 105//11 106//11
f 104//11 103//11 107//11 108//11
f 103//11 102//11 106//11 107//11
f 110//11 109//11 112//11 111//11
f 108//13 107//13 111//13 112//13
f 107//14 106//14 110//14 111//14
f 105//15 108//15 112//15 109//15
f 117//11 120//11 124//11 121//11
f 115//2 114//2 118//2 119//2
f 113//1 116//1 120//1 117//1
f 114//9 113//9 117//9 118//9
f 116//7 115//7 119//7 120//7
f 122//12 121//12 125//12 126//12
f 118//11 117//11 121//11 122//11
f 120//11 119//11 123//11 124//11
f 119//11 118//11 122//11 123//11
f 126//11 125//11 128//11 127//11
f 124//13 123//13 127//13 128//13
f 123//16 122//16 126//16 127//16
f 121//15 124//15 128//15 125//15
f 133//11 136//11 140//11 137//11
f 131//2 130//2 134//2 135//2
f 129//1 132//1 136//1 133//1
f 130//9 129//9 133//9 134//9
f 132//7 131//7 135//7 136//7
f 138//12 137//12 141//12 142//12
f 134//11 133//11 137//11 138//11
f 136//11 135//11 139//11 140//11
f 135//11 134//11 138//11 139//11
f 142//11 141//11 144//11 143//11
f 140//13 139//13 143//13 144//13
f 139//16 138//16 142//16 143//16
f 137//15 140//15 144//15 141//15
f 149//11 152//11 156//11 153//11
f 147//2 146//2 150//2 151//2
f 145//1 148//1 152//1 149//1
f 146//9 145//9 149//9 150//9
f 148//7 147//7 151//7 152//7
f 154//12 153//12 157//12 158//12
f 150//11 149//11 153//11 154//11
f 152//11 151//11 155//11 156//11
f 151//11 150//11 154//11 155//11
f 158//11 157//11 160//11 159//11
f 156//13 155//13 159//13 160//13
f 155//16 154//16 158//16 159//16
f 153//15 156//15 160//15 157//15
f 163//1 162//1 161//1 164//1
f 34//2 38//2 165//2 166//2
f 172//8 170//8 162//8 163//8
f 171//9 172//9 163//9 164//9
f 168//7 173//7 177//7 176//7
f 171//9 164//9 167//9 174//9
f 169//17 34//17 166//17 173//17
f 164//1 161//1 168//1 167//1
f 161//7 169//7 173//7 168//7
f 38//18 171//18 174//18 165//18
f 166//19 165//19 174//19 173//19
f 38//18 40//18 172//18 171//18
f 40//20 36//20 170//20 172//20
f 36//17 34//17 169//17 170//17
f 177//11 178//11 175//11 176//11
f 173//2 174//2 178//2 177//2
f 174//9 167//9 175//9 178//9
f 167//1 168//1 176//1 175//1
f 182//11 180//11 184//11 186//11
f 33//21 35//21 179//21 180//21
f 39//22 37//22 182//22 181//22
f 37//23 33//23 180//23 182//23
f 183//2 185//2 186//2 184//2
f 179//8 181//8 185//8 183//8
f 181//9 182//9 186//9 185//9
f 180//7 179//7 183//7 184//7
